<?xml version="1.0" encoding="UTF-8"?>
<!DOCTYPE svg PUBLIC "-//W3C//DTD SVG 1.1//EN" "http://www.w3.org/Graphics/SVG/1.1/DTD/svg11.dtd">
<!-- Creator: CorelDRAW 2020 (64-Bit) -->
<svg xmlns="http://www.w3.org/2000/svg" xml:space="preserve" width="66.323mm" height="66.323mm" version="1.1" style="shape-rendering:geometricPrecision; text-rendering:geometricPrecision; image-rendering:optimizeQuality; fill-rule:evenodd; clip-rule:evenodd"
viewBox="0 0 295.13 295.13"
 xmlns:xlink="http://www.w3.org/1999/xlink"
 xmlns:xodm="http://www.corel.com/coreldraw/odm/2003">
 <defs>
  <style type="text/css">
   <![CDATA[
    .fil0 {fill:black}
    .fil1 {fill:white;fill-rule:nonzero}
   ]]>
  </style>
 </defs>
 <g id="Layer_x0020_1">
  <metadata id="CorelCorpID_0Corel-Layer"/>
  <rect class="fil0" width="295.13" height="295.13" rx="147.56" ry="147.56"/>
  <path class="fil1" d="M191.59 96.27c0,-18.01 -11.24,-29.57 -25.63,-34.65 -5.77,-2.04 -12.07,-3.05 -18.41,-3.05l0 -0.02c-6.3,0 -12.6,1.02 -18.41,3.07 -14.38,5.07 -25.61,16.63 -25.61,34.65 0,2.26 0.37,4.27 0.73,6.2 0.42,2.3 0.83,4.52 0.83,6.98 0,3.42 -0.76,6.67 -2.11,9.61 -1.4,3.04 -3.45,5.72 -5.97,7.87l-0.06 0.04c-11.3,9.34 -18.09,20.37 -21,31.76 -2.3,8.99 -2.19,18.26 0,27.13 2.21,8.93 6.53,17.45 12.65,24.89 7.69,9.35 18.21,17.01 30.95,21.65l-0 -0.28 0.02 0c0,-12.28 7.4,-20.12 16.88,-23.53 3.51,-1.26 7.31,-1.9 11.09,-1.9 3.78,0 7.58,0.63 11.09,1.9 9.48,3.41 16.9,11.26 16.9,23.53l0.02 0 -0 0.29c12.81,-4.64 23.2,-12.21 30.78,-21.42 6.24,-7.59 10.57,-16.28 12.75,-25.34 2.17,-9.01 2.22,-18.38 -0.08,-27.38 -2.84,-11.12 -9.3,-21.73 -19.79,-30.45 -2.83,-2.12 -5.15,-4.88 -6.74,-8.06 -1.56,-3.12 -2.44,-6.62 -2.44,-10.3 0,-2.52 0.42,-4.78 0.84,-7.1 0.35,-1.92 0.72,-3.89 0.72,-6.09zm-22.39 -43.95c18.1,6.39 32.25,21.04 32.25,43.95 0,2.92 -0.46,5.43 -0.91,7.86 -0.33,1.79 -0.65,3.53 -0.65,5.32 0,2.13 0.49,4.12 1.37,5.86 0.92,1.84 2.26,3.43 3.89,4.64l0.19 0.15c12.27,10.15 19.83,22.6 23.19,35.73 0.61,2.38 1.08,4.79 1.41,7.2l12.32 0c2.21,0 4.22,0.9 5.68,2.36 1.45,1.46 2.35,3.47 2.35,5.69l0 19.5c0,2.22 -0.9,4.23 -2.35,5.69 -1.45,1.46 -3.46,2.36 -5.68,2.36l-17.1 0c-2.75,6.6 -6.52,12.88 -11.23,18.61 -10.23,12.43 -24.91,22.24 -43.25,26.95l-8.71 2.24 2.84 -8.55c0.3,-0.9 0.53,-1.84 0.69,-2.83 0.14,-0.89 0.22,-1.88 0.22,-2.94l0.02 0c0,-7.4 -4.56,-12.16 -10.39,-14.26 -2.44,-0.88 -5.11,-1.32 -7.78,-1.32 -2.68,0 -5.34,0.44 -7.78,1.32 -5.82,2.1 -10.37,6.85 -10.37,14.26l0.02 0c0,1.06 0.08,2.05 0.22,2.94 0.16,0.99 0.39,1.93 0.69,2.83l2.84 8.55 -8.71 -2.24c-18.17,-4.67 -33.04,-14.56 -43.43,-27.19 -4.65,-5.65 -8.4,-11.85 -11.15,-18.37l-17.01 0c-2.21,0 -4.22,-0.9 -5.67,-2.36 -1.45,-1.46 -2.35,-3.47 -2.35,-5.69l0 -19.5c0,-2.22 0.9,-4.23 2.35,-5.69 1.45,-1.46 3.46,-2.36 5.67,-2.36l12.23 0c0.32,-2.25 0.77,-4.5 1.34,-6.74 3.4,-13.32 11.24,-26.14 24.22,-36.89l-0 -0.01c1.43,-1.22 2.59,-2.74 3.39,-4.47 0.76,-1.65 1.19,-3.51 1.19,-5.48 0,-1.73 -0.31,-3.44 -0.64,-5.21 -0.45,-2.45 -0.92,-4.99 -0.92,-7.98 0,-22.92 14.14,-37.57 32.24,-43.95 6.83,-2.41 14.23,-3.61 21.64,-3.61l0 -0.02c7.37,0 14.78,1.21 21.64,3.63zm-102.78 135.9c-1.24,-5.01 -1.91,-10.14 -1.96,-15.3l-9.75 0 0 15.84 11.84 0 -0.13 -0.53zm162.22 -0.25l-0.19 0.79 11.98 0 0 -15.84 -9.88 0c-0.07,5.06 -0.71,10.1 -1.9,15.05zm-43.92 -5c-0.77,-0.75 -1.56,-1.48 -2.39,-2.17 -9.37,-7.9 -22.03,-11.86 -34.77,-11.86 -12.73,0 -25.4,3.95 -34.77,11.86 -0.74,0.62 -1.45,1.27 -2.15,1.94 4.68,3.92 10.42,6.88 16.69,8.88 6.5,2.07 13.56,3.12 20.61,3.13 7.06,0.01 14.1,-1.01 20.55,-3.07 6.09,-1.95 11.66,-4.85 16.21,-8.71zm3.93 -9.7c0.9,0.76 1.77,1.54 2.61,2.36 3.36,-5.11 5.33,-11.26 5.33,-18.45 0,-5.68 -1.47,-11 -4.17,-15.74 -2.84,-5 -7.04,-9.4 -12.3,-12.98l-0.31 -0.21c-2.35,-1.87 -4.26,-4.26 -5.58,-7 -1.28,-2.66 -2,-5.61 -2,-8.72 0,-2.12 0.31,-3.87 0.63,-5.67 0.26,-1.44 0.52,-2.91 0.52,-4.45 0,-11.99 -6.59,-19.64 -15.03,-22.97 -3.38,-1.33 -7.07,-2 -10.79,-2 -3.71,0 -7.41,0.67 -10.79,2 -8.44,3.32 -15.03,10.98 -15.03,22.97 0,1.49 0.27,3.01 0.52,4.48 0.32,1.83 0.63,3.61 0.63,5.63 0,3.19 -0.77,6.24 -2.13,8.97 -1.4,2.8 -3.43,5.23 -5.91,7.09l-0.19 0.14c-5.24,3.57 -9.34,7.88 -12.08,12.76 -2.63,4.68 -4.04,9.96 -4.04,15.7 0,7.09 2.03,13.2 5.49,18.3 0.8,-0.76 1.61,-1.5 2.45,-2.2 11.23,-9.47 26.18,-14.21 41.08,-14.21 14.9,0 29.85,4.74 41.08,14.21zm-5.56 -56.32c0.67,1.39 1.65,2.6 2.84,3.56 6.38,4.4 11.51,9.85 15.04,16.06 3.54,6.23 5.48,13.19 5.48,20.6 0,23.06 -15.3,37.6 -34.97,43.89 -7.43,2.37 -15.48,3.55 -23.52,3.53 -8.05,-0.02 -16.12,-1.22 -23.58,-3.6 -20,-6.37 -35.69,-21.04 -35.69,-43.82 0,-7.42 1.86,-14.33 5.35,-20.53 3.48,-6.18 8.55,-11.57 14.98,-15.98 1.25,-0.95 2.28,-2.18 2.98,-3.59 0.67,-1.35 1.05,-2.9 1.05,-4.57 0,-1.2 -0.24,-2.55 -0.48,-3.93 -0.33,-1.91 -0.68,-3.87 -0.68,-6.18 0,-16.71 9.35,-27.44 21.31,-32.15 4.56,-1.79 9.47,-2.69 14.37,-2.69 4.89,0 9.81,0.9 14.37,2.69 11.96,4.71 21.31,15.44 21.31,32.15 0,2.38 -0.34,4.29 -0.68,6.16l0 0.02c-0.24,1.36 -0.48,2.68 -0.48,3.93 0,1.61 0.36,3.11 0.99,4.43z"/>
 </g>
</svg>
